<svg width="28" height="28" viewBox="0 0 28 28" fill="none" xmlns="http://www.w3.org/2000/svg">
<path d="M24.7998 12.789C25.3528 13.5123 25.3528 14.4888 24.7998 15.211C23.058 17.4848 18.879 22.1666 14 22.1666C9.121 22.1666 4.942 17.4848 3.20017 15.211C2.93112 14.8646 2.78506 14.4386 2.78506 14C2.78506 13.5614 2.93112 13.1353 3.20017 12.789C4.942 10.5151 9.121 5.83331 14 5.83331C18.879 5.83331 23.058 10.5151 24.7998 12.789V12.789Z" stroke="#7D8797" stroke-width="2" stroke-linecap="round" stroke-linejoin="round"/>
<path d="M14 17.5C15.933 17.5 17.5 15.933 17.5 14C17.5 12.067 15.933 10.5 14 10.5C12.067 10.5 10.5 12.067 10.5 14C10.5 15.933 12.067 17.5 14 17.5Z" stroke="#7D8797" stroke-width="2" stroke-linecap="round" stroke-linejoin="round"/>
</svg>
